<?xml version="1.0" encoding="UTF-8" standalone="no"?><!DOCTYPE svg PUBLIC "-//W3C//DTD SVG 1.1//EN" "http://www.w3.org/Graphics/SVG/1.1/DTD/svg11.dtd"><svg width="100%" height="100%" viewBox="0 0 135 40" version="1.1" xmlns="http://www.w3.org/2000/svg" xmlns:xlink="http://www.w3.org/1999/xlink" xml:space="preserve" style="fill-rule:evenodd;clip-rule:evenodd;stroke-linejoin:round;stroke-miterlimit:1.41421;"><g><path d="M135,5c0,-2.76 -2.24,-5 -5,-5l-125,0c-2.76,0 -5,2.24 -5,5l0,30c0,2.76 2.24,5 5,5l125,0c2.76,0 5,-2.24 5,-5l0,-30Z"/></g><path d="M30.152,18.968c0.026,-1.988 1.069,-3.824 2.762,-4.865c-1.073,-1.534 -2.806,-2.471 -4.677,-2.529c-1.967,-0.207 -3.874,1.177 -4.877,1.177c-1.022,0 -2.565,-1.157 -4.227,-1.122c-2.188,0.071 -4.177,1.286 -5.24,3.2c-2.266,3.923 -0.576,9.688 1.595,12.859c1.086,1.553 2.355,3.287 4.016,3.226c1.625,-0.067 2.232,-1.036 4.193,-1.036c1.943,0 2.513,1.036 4.207,1c1.744,-0.028 2.842,-1.56 3.89,-3.127c0.78,-1.107 1.381,-2.33 1.779,-3.623c-2.074,-0.876 -3.421,-2.909 -3.421,-5.16Z" style="fill:#fff;fill-rule:nonzero;"/><path d="M26.952,9.49c0.951,-1.142 1.419,-2.608 1.306,-4.089c-1.452,0.152 -2.794,0.846 -3.758,1.944c-0.951,1.082 -1.433,2.499 -1.34,3.938c1.472,0.015 2.87,-0.646 3.792,-1.793Z" style="fill:#fff;fill-rule:nonzero;"/><path d="M53.669,30.688l-2.271,0l-1.244,-3.915l-4.324,0l-1.185,3.91l-2.211,0l4.28,-13.304l2.646,0l4.309,13.308Zm-3.89,-5.549l-1.125,-3.475c-0.119,-0.355 -0.342,-1.191 -0.671,-2.507l-0.04,0c-0.133,0.567 -0.344,1.403 -0.632,2.508l-1.105,3.474l3.573,0Z" style="fill:#fff;fill-rule:nonzero;"/><path d="M64.686,25.774c0.077,1.412 -0.397,2.799 -1.323,3.869c-0.752,0.826 -1.825,1.287 -2.942,1.264c-1.091,0.088 -2.141,-0.437 -2.725,-1.362l-0.04,0l0,5.055l-2.131,0l0,-10.349c0,-1.027 -0.026,-2.08 -0.079,-3.159l1.875,0l0.119,1.519l0.04,0c0.656,-1.002 1.746,-1.636 2.941,-1.71c1.196,-0.074 2.356,0.42 3.13,1.334c0.794,1.004 1.197,2.261 1.135,3.538Zm-2.172,0.078c0.033,-0.816 -0.187,-1.623 -0.632,-2.31c-0.418,-0.609 -1.117,-0.966 -1.856,-0.948c-0.524,0 -1.031,0.185 -1.431,0.523c-0.428,0.349 -0.724,0.834 -0.839,1.374c-0.059,0.211 -0.092,0.43 -0.1,0.65l0,1.6c-0.018,0.649 0.212,1.281 0.642,1.768c0.421,0.477 1.032,0.741 1.668,0.721c0.742,0.029 1.449,-0.32 1.875,-0.928c0.479,-0.725 0.715,-1.584 0.673,-2.451l0,0.002Z" style="fill:#fff;fill-rule:nonzero;"/><path d="M75.723,25.774c0.078,1.412 -0.397,2.8 -1.324,3.869c-0.751,0.826 -1.824,1.287 -2.941,1.264c-1.091,0.088 -2.14,-0.437 -2.724,-1.362l-0.04,0l0,5.055l-2.132,0l0,-10.349c0,-1.027 -0.026,-2.08 -0.079,-3.159l1.875,0l0.119,1.519l0.04,0c0.656,-1.002 1.746,-1.636 2.942,-1.71c1.195,-0.074 2.356,0.42 3.13,1.334c0.793,1.004 1.195,2.261 1.134,3.538Zm-2.172,0.078c0.033,-0.818 -0.19,-1.625 -0.637,-2.311c-0.418,-0.61 -1.116,-0.967 -1.855,-0.948c-0.524,-0.001 -1.031,0.184 -1.432,0.522c-0.427,0.35 -0.723,0.834 -0.838,1.374c-0.058,0.212 -0.092,0.43 -0.1,0.65l0,1.6c-0.018,0.649 0.211,1.28 0.64,1.768c0.421,0.477 1.034,0.742 1.67,0.721c0.742,0.029 1.449,-0.32 1.875,-0.928c0.48,-0.724 0.717,-1.582 0.677,-2.449l0,0.002Z" style="fill:#fff;fill-rule:nonzero;"/><path d="M88.063,26.956c0.036,1.051 -0.397,2.063 -1.182,2.764c-1.019,0.829 -2.313,1.245 -3.625,1.165c-1.205,0.056 -2.401,-0.231 -3.449,-0.829l0.494,-1.777c0.928,0.564 1.996,0.858 3.082,0.85c0.67,0.04 1.333,-0.152 1.877,-0.544c0.442,-0.351 0.69,-0.891 0.67,-1.454c0.012,-0.512 -0.188,-1.006 -0.553,-1.364c-0.535,-0.466 -1.16,-0.816 -1.836,-1.029c-2.333,-0.867 -3.498,-2.139 -3.494,-3.816c-0.026,-1.037 0.426,-2.029 1.225,-2.689c0.922,-0.736 2.081,-1.108 3.258,-1.048c1.043,-0.037 2.079,0.18 3.019,0.632l-0.535,1.735c-0.783,-0.417 -1.66,-0.627 -2.547,-0.612c-0.633,-0.039 -1.259,0.158 -1.756,0.553c-0.343,0.303 -0.538,0.741 -0.533,1.2c-0.009,0.504 0.217,0.985 0.611,1.3c0.586,0.443 1.24,0.789 1.935,1.027c0.956,0.337 1.821,0.89 2.527,1.618c0.551,0.644 0.84,1.471 0.812,2.318Z" style="fill:#fff;fill-rule:nonzero;"/><path d="M95.114,22.692l-2.35,0l0,4.659c0,1.184 0.415,1.777 1.244,1.777c0.319,0.006 0.637,-0.028 0.947,-0.1l0.059,1.619c-0.535,0.174 -1.096,0.254 -1.658,0.236c-0.739,0.041 -1.459,-0.24 -1.975,-0.77c-0.545,-0.747 -0.798,-1.667 -0.711,-2.587l0,-4.834l-1.4,0l0,-1.6l1.4,0l0,-1.757l2.094,-0.632l0,2.389l2.35,0l0,1.6Z" style="fill:#fff;fill-rule:nonzero;"/><path d="M105.714,25.811c0.052,1.327 -0.399,2.624 -1.264,3.633c-0.899,0.981 -2.186,1.516 -3.516,1.461c-1.274,0.056 -2.507,-0.457 -3.365,-1.4c-0.851,-0.976 -1.3,-2.238 -1.255,-3.531c-0.053,-1.341 0.412,-2.651 1.3,-3.657c0.896,-0.963 2.17,-1.483 3.484,-1.422c1.284,-0.055 2.527,0.457 3.4,1.4c0.838,0.974 1.272,2.232 1.216,3.516Zm-2.213,0.069c0.023,-0.798 -0.175,-1.586 -0.572,-2.277c-0.366,-0.718 -1.109,-1.164 -1.915,-1.149c-0.818,-0.024 -1.577,0.422 -1.955,1.148c-0.4,0.704 -0.598,1.506 -0.572,2.317c-0.023,0.796 0.175,1.584 0.572,2.276c0.381,0.713 1.126,1.156 1.934,1.152c0.808,-0.005 1.548,-0.456 1.921,-1.173c0.406,-0.696 0.609,-1.49 0.588,-2.294l-0.001,0Z" style="fill:#fff;fill-rule:nonzero;"/><path d="M112.645,22.967c-0.222,-0.041 -0.447,-0.06 -0.672,-0.059c-0.686,-0.032 -1.341,0.289 -1.738,0.85c-0.373,0.559 -0.559,1.222 -0.533,1.895l0,5.035l-2.131,0l0.02,-6.574c0,-1.107 -0.027,-2.114 -0.08,-3.021l1.858,0l0.078,1.836l0.059,0c0.201,-0.599 0.572,-1.127 1.066,-1.52c0.445,-0.333 0.986,-0.514 1.541,-0.514c0.179,-0.002 0.357,0.011 0.533,0.039l-0.001,2.033Z" style="fill:#fff;fill-rule:nonzero;"/><path d="M122.18,25.436c0.005,0.324 -0.021,0.647 -0.078,0.967l-6.4,0c-0.028,0.826 0.312,1.622 0.928,2.173c0.595,0.466 1.337,0.704 2.092,0.671c0.884,0.011 1.761,-0.143 2.588,-0.454l0.334,1.48c-1.02,0.416 -2.115,0.618 -3.217,0.593c-1.301,0.072 -2.572,-0.405 -3.506,-1.313c-0.879,-0.957 -1.338,-2.227 -1.273,-3.524c-0.047,-1.307 0.373,-2.588 1.185,-3.613c0.81,-1.018 2.056,-1.59 3.356,-1.539c1.244,-0.07 2.434,0.513 3.141,1.539c0.588,0.894 0.885,1.949 0.85,3.02Zm-2.033,-0.553c0.028,-0.576 -0.116,-1.146 -0.414,-1.639c-0.359,-0.588 -1.012,-0.93 -1.7,-0.889c-0.676,-0.013 -1.314,0.313 -1.7,0.869c-0.364,0.481 -0.582,1.056 -0.631,1.658l4.445,0.001Z" style="fill:#fff;fill-rule:nonzero;"/><path d="M48.628,12.617l-1.048,0l0,-2.949l-2.832,0l0,2.949l-1.048,0l0,-6.538l1.048,0l0,2.668l2.832,0l0,-2.668l1.048,0l0,6.538Z" style="fill:#fff;fill-rule:nonzero;"/><path d="M54.059,12.617l-0.945,0l-0.076,-0.543l-0.029,0c-0.321,0.432 -0.837,0.676 -1.376,0.649c-0.403,0.018 -0.794,-0.138 -1.075,-0.427c-0.245,-0.258 -0.378,-0.603 -0.368,-0.96c-0.02,-0.539 0.258,-1.046 0.724,-1.32c0.622,-0.335 1.325,-0.489 2.03,-0.442l0,-0.09c0,-0.621 -0.326,-0.931 -0.977,-0.931c-0.435,-0.009 -0.863,0.113 -1.229,0.349l-0.213,-0.688c0.49,-0.285 1.051,-0.426 1.617,-0.407c1.233,0 1.85,0.649 1.85,1.949l0,1.737c-0.006,0.375 0.016,0.751 0.067,1.124Zm-2.2,-5.907c0.005,0.143 -0.049,0.283 -0.148,0.388c-0.096,0.101 -0.23,0.158 -0.37,0.155c-0.142,0.002 -0.278,-0.056 -0.375,-0.16c-0.1,-0.102 -0.156,-0.24 -0.154,-0.383c-0.002,-0.145 0.056,-0.283 0.159,-0.383c0.099,-0.104 0.237,-0.162 0.38,-0.16c0.139,-0.004 0.273,0.055 0.365,0.16c0.094,0.105 0.145,0.242 0.141,0.383l0.002,0Zm1.115,4.287l0,-0.723c-1.157,-0.02 -1.736,0.297 -1.735,0.95c-0.016,0.204 0.057,0.406 0.2,0.553c0.141,0.124 0.324,0.19 0.512,0.184c0.232,-0.001 0.457,-0.077 0.641,-0.218c0.188,-0.133 0.318,-0.333 0.362,-0.558c0.014,-0.062 0.02,-0.125 0.019,-0.188l0.001,0Zm0.7,-4.287c0.005,0.144 -0.049,0.283 -0.149,0.388c-0.098,0.103 -0.237,0.16 -0.38,0.155c-0.141,0.002 -0.275,-0.056 -0.37,-0.16c-0.097,-0.104 -0.15,-0.241 -0.148,-0.383c-0.002,-0.143 0.053,-0.281 0.153,-0.383c0.1,-0.106 0.24,-0.164 0.385,-0.16c0.14,-0.004 0.273,0.055 0.365,0.16c0.094,0.104 0.145,0.241 0.142,0.383l0.002,0Z" style="fill:#fff;fill-rule:nonzero;"/><path d="M62.576,12.617l-1.028,0l0,-2.643c0,-0.872 -0.298,-1.307 -0.893,-1.306c-0.266,-0.009 -0.521,0.112 -0.683,0.324c-0.172,0.215 -0.263,0.483 -0.258,0.759l0,2.864l-1.028,0l0,-2.775c0.015,-0.3 -0.061,-0.597 -0.219,-0.852c-0.144,-0.212 -0.388,-0.334 -0.644,-0.319c-0.276,-0.005 -0.537,0.125 -0.7,0.348c-0.178,0.225 -0.274,0.505 -0.271,0.793l0,2.806l-1.028,0l0,-3.365c0,-0.414 -0.013,-0.864 -0.038,-1.349l0.9,0l0.049,0.717l0.029,0c0.286,-0.522 0.841,-0.837 1.435,-0.814c0.584,-0.039 1.12,0.324 1.3,0.882l0.02,0c0.139,-0.236 0.328,-0.437 0.553,-0.591c0.282,-0.196 0.618,-0.298 0.96,-0.291c0.391,-0.013 0.769,0.143 1.038,0.427c0.366,0.446 0.545,1.016 0.5,1.591l0.006,2.794Z" style="fill:#fff;fill-rule:nonzero;"/><path d="M66.786,8.688l-1.154,0l0,2.286c0,0.582 0.204,0.873 0.611,0.873c0.157,0.003 0.314,-0.014 0.466,-0.049l0.028,0.8c-0.262,0.086 -0.538,0.125 -0.814,0.117c-0.363,0.02 -0.717,-0.118 -0.97,-0.379c-0.268,-0.366 -0.393,-0.818 -0.35,-1.27l0,-2.378l-0.689,0l0,-0.786l0.688,0l0,-0.864l1.028,-0.309l0,1.173l1.154,0l0.002,0.786Z" style="fill:#fff;fill-rule:nonzero;"/><path d="M71.772,12.617l-0.941,0l-0.079,-0.543l-0.029,0c-0.321,0.433 -0.838,0.677 -1.377,0.649c-0.403,0.018 -0.795,-0.138 -1.077,-0.427c-0.245,-0.258 -0.378,-0.603 -0.368,-0.96c-0.02,-0.539 0.258,-1.045 0.723,-1.319c0.623,-0.336 1.327,-0.49 2.033,-0.444l0,-0.089c0,-0.621 -0.326,-0.931 -0.978,-0.931c-0.435,-0.009 -0.863,0.113 -1.229,0.349l-0.213,-0.688c0.491,-0.285 1.051,-0.426 1.618,-0.407c1.233,0 1.849,0.649 1.85,1.949l0,1.737c-0.006,0.375 0.016,0.751 0.067,1.124Zm-1.088,-1.62l0,-0.723c-1.156,-0.02 -1.734,0.297 -1.735,0.95c-0.016,0.204 0.057,0.405 0.2,0.553c0.141,0.124 0.324,0.19 0.512,0.184c0.232,-0.001 0.457,-0.077 0.641,-0.218c0.189,-0.133 0.319,-0.333 0.363,-0.558c0.013,-0.062 0.02,-0.125 0.019,-0.188Z" style="fill:#fff;fill-rule:nonzero;"/><path d="M77.532,6.496c0.007,0.171 -0.06,0.337 -0.184,0.456c-0.129,0.119 -0.3,0.182 -0.475,0.175c-0.165,0.003 -0.325,-0.062 -0.441,-0.179c-0.12,-0.119 -0.185,-0.283 -0.18,-0.451c-0.005,-0.169 0.062,-0.331 0.184,-0.446c0.259,-0.234 0.653,-0.234 0.912,0c0.122,0.115 0.189,0.277 0.184,0.445Zm-0.118,6.121l-1.046,0l0,-4.715l1.046,0l0,4.715Z" style="fill:#fff;fill-rule:nonzero;"/></svg>