<?xml version="1.0" encoding="UTF-8" standalone="no"?><!DOCTYPE svg PUBLIC "-//W3C//DTD SVG 1.1//EN" "http://www.w3.org/Graphics/SVG/1.1/DTD/svg11.dtd"><svg width="100%" height="100%" viewBox="0 0 135 40" version="1.1" xmlns="http://www.w3.org/2000/svg" xmlns:xlink="http://www.w3.org/1999/xlink" xml:space="preserve" style="fill-rule:evenodd;clip-rule:evenodd;stroke-miterlimit:10;"><g id="Lager_1"><g><g><path d="M135,5c0,-2.76 -2.24,-5 -5,-5l-125,0c-2.76,0 -5,2.24 -5,5l0,30c0,2.76 2.24,5 5,5l125,0c2.76,0 5,-2.24 5,-5l0,-30Z" style="fill:#242c31;"/><path d="M130.065,0l0.064,0.002l0.064,0.002l0.064,0.003l0.064,0.003l0.063,0.005l0.064,0.005l0.063,0.006l0.063,0.007l0.062,0.007l0.063,0.009l0.062,0.009l0.062,0.01l0.062,0.01l0.061,0.012l0.061,0.012l0.061,0.013l0.061,0.013l0.06,0.014l0.06,0.016l0.06,0.015l0.059,0.017l0.059,0.017l0.059,0.018l0.059,0.019l0.058,0.019l0.058,0.02l0.057,0.021l0.058,0.021l0.057,0.022l0.112,0.046l0.112,0.049l0.11,0.051l0.108,0.054l0.107,0.057l0.106,0.059l0.104,0.061l0.102,0.064l0.101,0.066l0.099,0.069l0.097,0.071l0.095,0.073l0.094,0.075l0.091,0.078l0.09,0.08l0.088,0.081l0.086,0.084l0.084,0.086l0.081,0.088l0.08,0.09l0.078,0.091l0.075,0.094l0.073,0.095l0.071,0.097l0.069,0.099l0.066,0.101l0.064,0.102l0.061,0.104l0.059,0.106l0.057,0.107l0.054,0.108l0.051,0.11l0.049,0.112l0.046,0.112l0.022,0.057l0.021,0.058l0.021,0.057l0.02,0.058l0.019,0.058l0.019,0.059l0.018,0.059l0.017,0.059l0.017,0.059l0.015,0.06l0.016,0.06l0.014,0.06l0.013,0.061l0.013,0.061l0.012,0.061l0.012,0.061l0.01,0.062l0.01,0.062l0.009,0.062l0.009,0.063l0.007,0.062l0.007,0.063l0.006,0.063l0.005,0.064l0.005,0.063l0.003,0.064l0.003,0.064l0.002,0.064l0.002,0.064l0,0.065l0,30l0,0.065l-0.002,0.064l-0.002,0.064l-0.003,0.064l-0.003,0.064l-0.005,0.063l-0.005,0.064l-0.006,0.063l-0.007,0.063l-0.007,0.062l-0.009,0.063l-0.009,0.062l-0.01,0.062l-0.01,0.062l-0.012,0.061l-0.012,0.061l-0.013,0.061l-0.013,0.061l-0.014,0.06l-0.016,0.06l-0.015,0.06l-0.017,0.059l-0.017,0.059l-0.018,0.059l-0.019,0.059l-0.019,0.058l-0.02,0.058l-0.021,0.057l-0.021,0.058l-0.022,0.057l-0.046,0.112l-0.049,0.112l-0.051,0.11l-0.054,0.108l-0.057,0.107l-0.059,0.106l-0.061,0.104l-0.064,0.102l-0.066,0.101l-0.069,0.099l-0.071,0.097l-0.073,0.095l-0.075,0.094l-0.078,0.091l-0.08,0.09l-0.081,0.088l-0.084,0.086l-0.086,0.084l-0.088,0.081l-0.09,0.08l-0.091,0.078l-0.094,0.075l-0.095,0.073l-0.097,0.071l-0.099,0.069l-0.101,0.066l-0.102,0.064l-0.104,0.061l-0.106,0.059l-0.107,0.057l-0.108,0.054l-0.11,0.051l-0.112,0.049l-0.112,0.046l-0.057,0.022l-0.058,0.021l-0.057,0.021l-0.058,0.02l-0.058,0.019l-0.059,0.019l-0.059,0.018l-0.059,0.017l-0.059,0.017l-0.06,0.015l-0.06,0.016l-0.06,0.014l-0.061,0.013l-0.061,0.013l-0.061,0.012l-0.061,0.012l-0.062,0.01l-0.062,0.01l-0.062,0.009l-0.063,0.009l-0.062,0.007l-0.063,0.007l-0.063,0.006l-0.064,0.005l-0.063,0.005l-0.064,0.003l-0.064,0.003l-0.064,0.002l-0.064,0.002l-0.065,0l-125,0l-0.065,0l-0.064,-0.002l-0.064,-0.002l-0.064,-0.003l-0.064,-0.003l-0.063,-0.005l-0.064,-0.005l-0.063,-0.006l-0.063,-0.007l-0.062,-0.007l-0.063,-0.009l-0.062,-0.009l-0.062,-0.01l-0.062,-0.01l-0.061,-0.012l-0.061,-0.012l-0.061,-0.013l-0.061,-0.013l-0.06,-0.014l-0.06,-0.016l-0.06,-0.015l-0.059,-0.017l-0.059,-0.017l-0.059,-0.018l-0.059,-0.019l-0.058,-0.019l-0.058,-0.02l-0.057,-0.021l-0.058,-0.021l-0.057,-0.022l-0.112,-0.046l-0.112,-0.049l-0.11,-0.051l-0.108,-0.054l-0.107,-0.057l-0.106,-0.059l-0.104,-0.061l-0.102,-0.064l-0.101,-0.066l-0.099,-0.069l-0.097,-0.071l-0.095,-0.073l-0.094,-0.075l-0.091,-0.078l-0.09,-0.08l-0.088,-0.081l-0.086,-0.084l-0.084,-0.086l-0.081,-0.088l-0.08,-0.09l-0.078,-0.091l-0.075,-0.094l-0.073,-0.095l-0.071,-0.097l-0.069,-0.099l-0.066,-0.101l-0.064,-0.102l-0.061,-0.104l-0.059,-0.106l-0.057,-0.107l-0.054,-0.108l-0.051,-0.11l-0.049,-0.112l-0.046,-0.112l-0.022,-0.057l-0.021,-0.058l-0.021,-0.057l-0.02,-0.058l-0.019,-0.058l-0.019,-0.059l-0.018,-0.059l-0.017,-0.059l-0.017,-0.059l-0.015,-0.06l-0.016,-0.06l-0.014,-0.06l-0.013,-0.061l-0.013,-0.061l-0.012,-0.061l-0.012,-0.061l-0.01,-0.062l-0.01,-0.062l-0.009,-0.062l-0.009,-0.063l-0.007,-0.062l-0.007,-0.063l-0.006,-0.063l-0.005,-0.064l-0.005,-0.063l-0.003,-0.064l-0.003,-0.064l-0.002,-0.064l-0.002,-0.064l0,-0.065l0,-30l0,-0.065l0.002,-0.064l0.002,-0.064l0.003,-0.064l0.003,-0.064l0.005,-0.063l0.005,-0.064l0.006,-0.063l0.007,-0.063l0.007,-0.062l0.009,-0.063l0.009,-0.062l0.01,-0.062l0.01,-0.062l0.012,-0.061l0.012,-0.061l0.013,-0.061l0.013,-0.061l0.014,-0.06l0.016,-0.06l0.015,-0.06l0.017,-0.059l0.017,-0.059l0.018,-0.059l0.019,-0.059l0.019,-0.058l0.02,-0.058l0.021,-0.057l0.021,-0.058l0.022,-0.057l0.046,-0.112l0.049,-0.112l0.051,-0.11l0.054,-0.108l0.057,-0.107l0.059,-0.106l0.061,-0.104l0.064,-0.102l0.066,-0.101l0.069,-0.099l0.071,-0.097l0.073,-0.095l0.075,-0.094l0.078,-0.091l0.08,-0.09l0.081,-0.088l0.084,-0.086l0.086,-0.084l0.088,-0.081l0.09,-0.08l0.091,-0.078l0.094,-0.075l0.095,-0.073l0.097,-0.071l0.099,-0.069l0.101,-0.066l0.102,-0.064l0.104,-0.061l0.106,-0.059l0.107,-0.057l0.108,-0.054l0.11,-0.051l0.112,-0.049l0.112,-0.046l0.057,-0.022l0.058,-0.021l0.057,-0.021l0.058,-0.02l0.058,-0.019l0.059,-0.019l0.059,-0.018l0.059,-0.017l0.059,-0.017l0.06,-0.015l0.06,-0.016l0.06,-0.014l0.061,-0.013l0.061,-0.013l0.061,-0.012l0.061,-0.012l0.062,-0.01l0.062,-0.01l0.062,-0.009l0.063,-0.009l0.062,-0.007l0.063,-0.007l0.063,-0.006l0.064,-0.005l0.063,-0.005l0.064,-0.003l0.064,-0.003l0.064,-0.002l0.064,-0.002l0.065,0l125,0l0.065,0Zm-125.062,1l-0.055,0l-0.052,0.001l-0.051,0.002l-0.051,0.002l-0.052,0.003l-0.05,0.004l-0.051,0.004l-0.051,0.005l-0.05,0.005l-0.05,0.006l-0.05,0.007l-0.05,0.007l-0.049,0.008l-0.05,0.009l-0.049,0.009l-0.048,0.009l-0.049,0.011l-0.048,0.01l-0.049,0.012l-0.048,0.012l-0.047,0.013l-0.048,0.013l-0.047,0.013l-0.047,0.015l-0.047,0.015l-0.046,0.015l-0.046,0.016l-0.046,0.017l-0.046,0.017l-0.043,0.016l-0.093,0.038l-0.089,0.039l-0.088,0.041l-0.086,0.043l-0.086,0.046l-0.084,0.047l-0.083,0.049l-0.082,0.051l-0.081,0.053l-0.079,0.055l-0.078,0.057l-0.076,0.058l-0.075,0.061l-0.074,0.062l-0.071,0.064l-0.071,0.065l-0.069,0.067l-0.067,0.069l-0.065,0.071l-0.064,0.071l-0.062,0.074l-0.061,0.075l-0.058,0.076l-0.057,0.078l-0.055,0.079l-0.053,0.081l-0.051,0.082l-0.049,0.083l-0.047,0.084l-0.046,0.086l-0.043,0.086l-0.041,0.088l-0.039,0.089l-0.038,0.093l-0.016,0.043l-0.017,0.046l-0.017,0.046l-0.016,0.046l-0.015,0.046l-0.015,0.047l-0.015,0.047l-0.013,0.047l-0.013,0.048l-0.013,0.047l-0.012,0.048l-0.012,0.049l-0.01,0.048l-0.011,0.049l-0.009,0.048l-0.009,0.049l-0.009,0.05l-0.008,0.049l-0.007,0.05l-0.007,0.05l-0.006,0.05l-0.005,0.05l-0.005,0.051l-0.004,0.051l-0.004,0.05l-0.003,0.052l-0.002,0.051l-0.002,0.051l-0.001,0.052l0,0.055l0,29.994l0,0.055l0.001,0.052l0.002,0.051l0.002,0.051l0.003,0.052l0.004,0.05l0.004,0.051l0.005,0.051l0.005,0.05l0.006,0.05l0.007,0.05l0.007,0.05l0.008,0.049l0.009,0.05l0.009,0.049l0.009,0.048l0.011,0.049l0.01,0.048l0.012,0.049l0.012,0.048l0.013,0.047l0.013,0.048l0.013,0.047l0.015,0.047l0.015,0.047l0.015,0.046l0.016,0.046l0.017,0.046l0.017,0.046l0.016,0.043l0.038,0.093l0.039,0.089l0.041,0.088l0.043,0.086l0.046,0.086l0.047,0.084l0.049,0.083l0.051,0.082l0.053,0.081l0.055,0.079l0.057,0.078l0.058,0.076l0.061,0.075l0.062,0.074l0.064,0.071l0.065,0.071l0.067,0.069l0.069,0.067l0.071,0.065l0.071,0.064l0.074,0.062l0.075,0.061l0.076,0.058l0.078,0.057l0.079,0.055l0.081,0.053l0.082,0.051l0.083,0.049l0.084,0.047l0.086,0.046l0.086,0.043l0.088,0.041l0.089,0.039l0.093,0.038l0.043,0.016l0.046,0.017l0.046,0.017l0.046,0.016l0.046,0.015l0.047,0.015l0.047,0.015l0.047,0.013l0.048,0.013l0.047,0.013l0.048,0.012l0.049,0.012l0.048,0.01l0.049,0.011l0.048,0.009l0.049,0.009l0.05,0.009l0.049,0.008l0.05,0.007l0.05,0.007l0.05,0.006l0.05,0.005l0.051,0.005l0.051,0.004l0.05,0.004l0.052,0.003l0.051,0.002l0.051,0.002l0.052,0.001l0.055,0l124.994,0l0.055,0l0.052,-0.001l0.051,-0.002l0.051,-0.002l0.052,-0.003l0.05,-0.004l0.051,-0.004l0.051,-0.005l0.05,-0.005l0.05,-0.006l0.05,-0.007l0.05,-0.007l0.049,-0.008l0.05,-0.009l0.049,-0.009l0.048,-0.009l0.049,-0.011l0.048,-0.01l0.049,-0.012l0.048,-0.012l0.047,-0.013l0.048,-0.013l0.047,-0.013l0.047,-0.015l0.047,-0.015l0.046,-0.015l0.046,-0.016l0.046,-0.017l0.046,-0.017l0.043,-0.016l0.093,-0.038l0.089,-0.039l0.088,-0.041l0.086,-0.043l0.086,-0.046l0.084,-0.047l0.083,-0.049l0.082,-0.051l0.081,-0.053l0.079,-0.055l0.078,-0.057l0.076,-0.058l0.075,-0.061l0.074,-0.062l0.071,-0.064l0.071,-0.065l0.069,-0.067l0.067,-0.069l0.065,-0.07l0.064,-0.072l0.062,-0.074l0.061,-0.075l0.058,-0.076l0.057,-0.078l0.055,-0.079l0.053,-0.081l0.051,-0.082l0.049,-0.083l0.047,-0.084l0.046,-0.086l0.043,-0.086l0.041,-0.088l0.039,-0.089l0.038,-0.093l0.016,-0.043l0.017,-0.046l0.017,-0.046l0.016,-0.046l0.015,-0.046l0.015,-0.047l0.015,-0.047l0.013,-0.047l0.013,-0.048l0.013,-0.047l0.012,-0.048l0.012,-0.049l0.01,-0.048l0.011,-0.049l0.009,-0.048l0.009,-0.049l0.009,-0.05l0.008,-0.049l0.007,-0.05l0.007,-0.05l0.006,-0.05l0.005,-0.05l0.005,-0.051l0.004,-0.05l0.004,-0.051l0.003,-0.052l0.002,-0.051l0.002,-0.051l0.001,-0.052l0,-0.055l0,-29.994l0,-0.055l-0.001,-0.052l-0.002,-0.051l-0.002,-0.051l-0.003,-0.052l-0.004,-0.051l-0.004,-0.05l-0.005,-0.051l-0.005,-0.05l-0.006,-0.05l-0.007,-0.05l-0.007,-0.05l-0.008,-0.049l-0.009,-0.05l-0.009,-0.049l-0.009,-0.048l-0.011,-0.049l-0.01,-0.048l-0.012,-0.049l-0.012,-0.048l-0.013,-0.047l-0.013,-0.048l-0.013,-0.047l-0.015,-0.047l-0.015,-0.047l-0.015,-0.046l-0.016,-0.046l-0.017,-0.046l-0.017,-0.046l-0.016,-0.043l-0.038,-0.093l-0.039,-0.089l-0.041,-0.088l-0.043,-0.086l-0.046,-0.086l-0.047,-0.084l-0.049,-0.083l-0.051,-0.082l-0.053,-0.081l-0.055,-0.079l-0.057,-0.078l-0.058,-0.076l-0.061,-0.075l-0.062,-0.074l-0.064,-0.072l-0.065,-0.07l-0.067,-0.069l-0.069,-0.067l-0.071,-0.065l-0.071,-0.064l-0.074,-0.062l-0.075,-0.061l-0.076,-0.058l-0.078,-0.057l-0.079,-0.055l-0.081,-0.053l-0.082,-0.051l-0.083,-0.049l-0.084,-0.047l-0.086,-0.046l-0.086,-0.043l-0.088,-0.041l-0.089,-0.039l-0.093,-0.038l-0.043,-0.016l-0.046,-0.017l-0.046,-0.017l-0.046,-0.016l-0.046,-0.015l-0.047,-0.015l-0.047,-0.015l-0.047,-0.013l-0.048,-0.013l-0.047,-0.013l-0.048,-0.012l-0.049,-0.012l-0.048,-0.01l-0.049,-0.011l-0.048,-0.009l-0.049,-0.009l-0.05,-0.009l-0.049,-0.008l-0.05,-0.007l-0.05,-0.007l-0.05,-0.006l-0.05,-0.005l-0.051,-0.005l-0.051,-0.004l-0.05,-0.004l-0.052,-0.003l-0.051,-0.002l-0.051,-0.002l-0.052,-0.001l-0.055,0l-124.994,0Z" style="fill:#fff;"/></g><path d="M68.136,21.752c-2.327,0.009 -4.237,1.926 -4.237,4.253c0,2.333 1.92,4.253 4.253,4.253c2.333,0 4.253,-1.92 4.253,-4.253c0,-0.002 0,-0.003 0,-0.005c0,-0.019 0,-0.038 0,-0.057c0,-2.299 -1.892,-4.192 -4.192,-4.192c-0.025,0 -0.051,0.001 -0.077,0.001Zm0,6.831c-0.061,0.004 -0.123,0.007 -0.184,0.007c-1.418,0 -2.584,-1.167 -2.584,-2.584c0,-1.418 1.166,-2.584 2.584,-2.584c1.415,0 2.581,1.163 2.584,2.578c0.002,0.041 0.003,0.082 0.003,0.123c0,1.328 -1.075,2.429 -2.403,2.46Zm-9.313,-6.831c-2.327,0.009 -4.237,1.926 -4.237,4.253c0,2.333 1.92,4.253 4.253,4.253c2.333,0 4.253,-1.92 4.253,-4.253c0,-0.002 0,-0.003 0,-0.005c0,-0.019 0,-0.038 0,-0.057c0,-2.299 -1.892,-4.192 -4.192,-4.192c-0.026,0 -0.052,0.001 -0.078,0.001l0.001,0Zm0,6.831c-0.061,0.004 -0.123,0.007 -0.184,0.007c-1.418,0 -2.584,-1.167 -2.584,-2.584c0,-1.418 1.166,-2.584 2.584,-2.584c1.415,0 2.581,1.163 2.584,2.578c0.002,0.041 0.003,0.082 0.003,0.123c0,1.328 -1.076,2.429 -2.404,2.46l0.001,0Zm-11.079,-5.526l0,1.8l4.318,0c-0.062,0.846 -0.409,1.647 -0.983,2.272c-0.875,0.891 -2.087,1.372 -3.335,1.321c-2.633,0 -4.8,-2.167 -4.8,-4.8c0,-2.633 2.167,-4.8 4.8,-4.8c1.213,-0.016 2.384,0.448 3.256,1.291l1.273,-1.273c-1.202,-1.19 -2.835,-1.847 -4.527,-1.82c-0.027,0 -0.054,-0.001 -0.081,-0.001c-3.624,0 -6.606,2.983 -6.606,6.606c0,3.624 2.982,6.606 6.606,6.606c0.027,0 0.054,0 0.081,0c1.73,0.072 3.409,-0.604 4.608,-1.853c1.052,-1.148 1.614,-2.664 1.563,-4.221c0.003,-0.378 -0.03,-0.756 -0.1,-1.128l-6.073,0Zm45.308,1.4c-0.522,-1.575 -1.983,-2.66 -3.641,-2.707c-2.208,0.014 -4.016,1.834 -4.016,4.042c0,0.069 0.001,0.139 0.005,0.208c-0.001,0.03 -0.001,0.061 -0.001,0.091c0,2.284 1.879,4.162 4.162,4.162c0.02,0 0.04,0 0.06,0c1.422,0.008 2.756,-0.702 3.544,-1.885l-1.45,-0.967c-0.441,0.733 -1.238,1.181 -2.094,1.176c-0.885,0.034 -1.705,-0.479 -2.062,-1.289l5.687,-2.352l-0.194,-0.479Zm-5.8,1.418c-0.003,-0.048 -0.004,-0.096 -0.004,-0.144c0,-1.24 0.988,-2.275 2.227,-2.331c0.658,-0.044 1.281,0.312 1.579,0.9l-3.802,1.575Zm-4.624,4.125l1.872,0l0,-12.5l-1.872,0l0,12.5Zm-3.061,-7.3l-0.067,0c-0.574,-0.624 -1.391,-0.971 -2.239,-0.951c-2.264,0.098 -4.073,1.987 -4.073,4.253c0,2.266 1.809,4.155 4.073,4.253c0.852,0.022 1.671,-0.332 2.239,-0.967l0.064,0l0,0.612c0,1.627 -0.87,2.5 -2.272,2.5c-0.954,-0.023 -1.803,-0.623 -2.143,-1.514l-1.627,0.677c0.626,1.524 2.122,2.522 3.77,2.513c2.191,0 4.044,-1.289 4.044,-4.43l0,-7.637l-1.769,0l0,0.691Zm-2.143,5.88c-1.331,-0.114 -2.365,-1.242 -2.365,-2.578c0,-1.335 1.034,-2.463 2.365,-2.577c1.271,0.061 2.284,1.124 2.284,2.397c0,0.067 -0.003,0.133 -0.008,0.199c0.005,0.062 0.007,0.125 0.007,0.187c0,1.268 -1.015,2.325 -2.282,2.375l-0.001,-0.003Zm24.382,-11.08l-4.471,0l0,12.5l1.865,0l0,-4.736l2.605,0c0.069,0.004 0.138,0.005 0.207,0.005c2.133,0 3.888,-1.755 3.888,-3.888c0,-2.132 -1.755,-3.888 -3.888,-3.888c-0.069,0 -0.138,0.002 -0.207,0.006l0.001,0.001Zm0.048,6.025l-2.654,0l0,-4.286l2.654,0c0.015,0 0.031,-0.001 0.046,-0.001c1.176,0 2.143,0.968 2.143,2.143c0,1.176 -0.967,2.143 -2.143,2.143c-0.015,0 -0.031,0 -0.046,0l0,0.001Zm11.532,-1.8c-1.389,-0.082 -2.701,0.672 -3.329,1.914l1.657,0.692c0.334,-0.614 1.003,-0.975 1.7,-0.917c0.978,-0.094 1.862,0.63 1.962,1.608l0,0.129c-0.599,-0.318 -1.268,-0.484 -1.946,-0.482c-1.785,0 -3.6,0.981 -3.6,2.815c0.069,1.534 1.35,2.758 2.885,2.758c0.072,0 0.143,-0.003 0.215,-0.008c0.955,0.056 1.869,-0.413 2.38,-1.222l0.064,0l0,0.965l1.8,0l0,-4.79c0.007,-2.22 -1.649,-3.458 -3.788,-3.458l0,-0.004Zm-0.225,6.851c-0.611,0 -1.464,-0.306 -1.464,-1.062c0,-0.965 1.061,-1.335 1.978,-1.335c0.594,-0.015 1.181,0.129 1.7,0.418c-0.139,1.116 -1.09,1.968 -2.215,1.983l0.001,-0.004Zm10.582,-6.576l-2.139,5.42l-0.064,0l-2.22,-5.42l-2.01,0l3.329,7.575l-1.9,4.214l1.946,0l5.133,-11.789l-2.075,0Zm-16.807,8l1.864,0l0,-12.5l-1.866,0l0.002,12.5Z" style="fill:#fff;fill-rule:nonzero;"/><g><path d="M10.435,7.538c-0.327,0.391 -0.493,0.892 -0.463,1.4l0,22.121c-0.03,0.508 0.136,1.009 0.463,1.4l0.074,0.072l12.391,-12.384l0,-0.292l-12.391,-12.389l-0.074,0.072Z" style="fill:url(#_Linear1);fill-rule:nonzero;"/><path d="M27.028,24.279l-4.128,-4.132l0,-0.292l4.13,-4.13l0.093,0.053l4.893,2.78c1.4,0.794 1.4,2.093 0,2.888l-4.893,2.78l-0.095,0.053Z" style="fill:url(#_Linear2);fill-rule:nonzero;"/><path d="M27.122,24.225l-4.222,-4.225l-12.465,12.464c0.585,0.516 1.463,0.542 2.078,0.061l14.608,-8.3" style="fill:url(#_Linear3);fill-rule:nonzero;"/><path d="M27.122,15.777l-14.608,-8.3c-0.615,-0.481 -1.493,-0.455 -2.078,0.061l12.464,12.462l4.222,-4.223Z" style="fill:url(#_Linear4);fill-rule:nonzero;"/><g><path d="M27.029,24.132l-14.516,8.247c-0.588,0.447 -1.407,0.451 -2,0.011l-0.075,0.075l0.074,0.072c0.593,0.44 1.412,0.436 2,-0.011l14.608,-8.3l-0.091,-0.094Z" style="fill-opacity:0.2;fill-rule:nonzero;"/><path d="M10.435,32.318c-0.327,-0.391 -0.493,-0.892 -0.463,-1.4l0,0.146c-0.03,0.508 0.136,1.009 0.463,1.4l0.075,-0.075l-0.075,-0.071Z" style="fill-opacity:0.12;fill-rule:nonzero;"/></g><path d="M32.015,21.3l-4.986,2.833l0.093,0.093l4.893,-2.78c0.586,-0.255 0.988,-0.81 1.048,-1.446c-0.124,0.574 -0.513,1.057 -1.048,1.3Z" style="fill-opacity:0.12;fill-rule:nonzero;"/><path d="M12.513,7.623l19.5,11.08c0.535,0.242 0.924,0.724 1.05,1.297c-0.06,-0.635 -0.462,-1.19 -1.048,-1.444l-19.5,-11.08c-1.4,-0.794 -2.541,-0.135 -2.541,1.466l0,0.148c-0.001,-1.601 1.142,-2.261 2.539,-1.467Z" style="fill:#fff;fill-opacity:0.25;fill-rule:nonzero;"/></g></g><g><path d="M41.219,13l0,-6l0.77,0l0,5.263l2.6,0l0,0.737l-3.37,0Z" style="fill:#fff;fill-rule:nonzero;stroke:#fff;stroke-width:0.2px;"/><path d="M45.057,13l2.263,-6l0.871,0l2.263,6l-0.854,0l-0.578,-1.626l-2.522,0l-0.589,1.626l-0.854,0Zm1.7,-2.347l1.994,0l-0.98,-2.706l-0.033,0l-0.981,2.706Z" style="fill:#fff;fill-rule:nonzero;stroke:#fff;stroke-width:0.2px;"/><path d="M51.324,13l0,-6l1.835,0c0.821,-0.039 1.622,0.263 2.213,0.834c0.561,0.578 0.861,1.361 0.828,2.166c0.032,0.805 -0.268,1.588 -0.829,2.166c-0.591,0.571 -1.392,0.872 -2.212,0.834l-1.835,0Zm0.77,-0.737l1.065,0c0.607,0.03 1.201,-0.186 1.646,-0.6c0.424,-0.446 0.644,-1.049 0.608,-1.663c0.036,-0.614 -0.184,-1.217 -0.607,-1.664c-0.445,-0.414 -1.039,-0.631 -1.646,-0.6l-1.065,0l-0.001,4.527Z" style="fill:#fff;fill-rule:nonzero;stroke:#fff;stroke-width:0.2px;"/><path d="M57.282,13l0,-6l1.835,0c0.821,-0.039 1.622,0.263 2.213,0.834c0.561,0.578 0.861,1.361 0.829,2.166c0.032,0.805 -0.268,1.588 -0.829,2.166c-0.591,0.571 -1.392,0.873 -2.213,0.834l-1.835,0Zm0.77,-0.737l1.065,0c0.607,0.03 1.201,-0.186 1.646,-0.6c0.424,-0.446 0.644,-1.049 0.608,-1.663c0.036,-0.614 -0.184,-1.217 -0.607,-1.664c-0.445,-0.414 -1.039,-0.631 -1.646,-0.6l-1.065,0l-0.001,4.527Z" style="fill:#fff;fill-rule:nonzero;stroke:#fff;stroke-width:0.2px;"/><path d="M62.486,13l2.263,-6l0.871,0l2.263,6l-0.855,0l-0.578,-1.626l-2.522,0l-0.587,1.626l-0.855,0Zm1.7,-2.347l1.994,0l-0.98,-2.706l-0.033,0l-0.981,2.706Z" style="fill:#fff;fill-rule:nonzero;stroke:#fff;stroke-width:0.2px;"/><path d="M70.767,13l0,-6l0.939,0l2.916,4.668l0.033,0l-0.033,-1.156l0,-3.512l0.772,0l0,6l-0.8,0l-3.057,-4.893l-0.037,0l0.033,1.156l0,3.737l-0.766,0Z" style="fill:#fff;fill-rule:nonzero;stroke:#fff;stroke-width:0.2px;"/><path d="M80.269,7.737l-2.733,0l0,1.9l2.464,0l0,0.721l-2.464,0l0,1.9l2.733,0l0,0.742l-3.5,0l0,-6l3.5,0l0,0.737Z" style="fill:#fff;fill-rule:nonzero;stroke:#fff;stroke-width:0.2px;"/><path d="M81.476,13l0,-6l1.834,0c0.821,-0.039 1.622,0.263 2.213,0.834c0.561,0.578 0.861,1.361 0.829,2.166c0.032,0.805 -0.268,1.588 -0.829,2.166c-0.591,0.571 -1.392,0.873 -2.213,0.834l-1.834,0Zm0.77,-0.737l1.064,0c0.607,0.031 1.202,-0.186 1.647,-0.6c0.423,-0.446 0.643,-1.049 0.607,-1.663c0.036,-0.615 -0.184,-1.217 -0.608,-1.664c-0.445,-0.415 -1.04,-0.631 -1.647,-0.6l-1.063,0l0,4.527Z" style="fill:#fff;fill-rule:nonzero;stroke:#fff;stroke-width:0.2px;"/><path d="M90.215,13l-0.77,0l0,-6l2.045,0c0.488,-0.007 0.961,0.175 1.319,0.507c0.355,0.33 0.558,0.793 0.558,1.278c0,0.485 -0.203,0.948 -0.558,1.278c-0.358,0.333 -0.831,0.515 -1.319,0.507l-1.275,0l0,2.43Zm0,-3.168l1.291,0c0.295,0.012 0.58,-0.108 0.779,-0.326c0.388,-0.399 0.388,-1.042 0,-1.441c-0.198,-0.219 -0.484,-0.339 -0.779,-0.327l-1.291,0l0,2.094Z" style="fill:#fff;fill-rule:nonzero;stroke:#fff;stroke-width:0.2px;"/><path d="M93.249,13l2.137,-5.665c-0.197,-0.168 -0.31,-0.414 -0.31,-0.673c0,-0.23 0.09,-0.452 0.251,-0.617c0.163,-0.155 0.379,-0.242 0.604,-0.242c0.48,0 0.875,0.395 0.875,0.875c0,0.251 -0.108,0.491 -0.297,0.657l2.136,5.665l-0.854,0l-0.578,-1.626l-2.523,0l-0.59,1.626l-0.851,0Zm1.7,-2.347l1.994,0l-0.98,-2.706l-0.033,0l-0.981,2.706Zm1,-3.653c0.181,-0.002 0.329,-0.151 0.329,-0.332c0,-0.182 -0.15,-0.332 -0.332,-0.332c-0.181,0 -0.33,0.148 -0.332,0.329c-0.003,0.087 0.028,0.171 0.086,0.235c0.055,0.06 0.132,0.096 0.214,0.1l0.035,0Z" style="fill:#fff;fill-rule:nonzero;stroke:#fff;stroke-width:0.2px;"/></g></g><defs><linearGradient id="_Linear1" x1="0" y1="0" x2="1" y2="0" gradientUnits="userSpaceOnUse" gradientTransform="matrix(-16.783,16.782,-16.782,-16.783,21.8,8.71)"><stop offset="0" style="stop-color:#4595d1;stop-opacity:1"/><stop offset="0.01" style="stop-color:#4496d2;stop-opacity:1"/><stop offset="0.26" style="stop-color:#3db7ea;stop-opacity:1"/><stop offset="0.51" style="stop-color:#48c0ec;stop-opacity:1"/><stop offset="0.76" style="stop-color:#5bc2e5;stop-opacity:1"/><stop offset="1" style="stop-color:#5fc3e4;stop-opacity:1"/></linearGradient><linearGradient id="_Linear2" x1="0" y1="0" x2="1" y2="0" gradientUnits="userSpaceOnUse" gradientTransform="matrix(-24.197,2.96328e-15,-2.96328e-15,-24.197,33.834,20.001)"><stop offset="0" style="stop-color:#ffdf06;stop-opacity:1"/><stop offset="0.41" style="stop-color:#fabb0c;stop-opacity:1"/><stop offset="0.78" style="stop-color:#f5a216;stop-opacity:1"/><stop offset="1" style="stop-color:#f4991a;stop-opacity:1"/></linearGradient><linearGradient id="_Linear3" x1="0" y1="0" x2="1" y2="0" gradientUnits="userSpaceOnUse" gradientTransform="matrix(-22.758,22.758,-22.758,-22.758,24.827,22.296)"><stop offset="0" style="stop-color:#e74149;stop-opacity:1"/><stop offset="1" style="stop-color:#c20f62;stop-opacity:1"/></linearGradient><linearGradient id="_Linear4" x1="0" y1="0" x2="1" y2="0" gradientUnits="userSpaceOnUse" gradientTransform="matrix(10.163,10.163,-10.163,10.163,7.297,0.176)"><stop offset="0" style="stop-color:#319f71;stop-opacity:1"/><stop offset="0.07" style="stop-color:#2ba671;stop-opacity:1"/><stop offset="0.48" style="stop-color:#4eb16f;stop-opacity:1"/><stop offset="0.8" style="stop-color:#60b468;stop-opacity:1"/><stop offset="1" style="stop-color:#63b563;stop-opacity:1"/></linearGradient></defs></svg>