<?xml version="1.0" encoding="UTF-8" standalone="no"?><!DOCTYPE svg PUBLIC "-//W3C//DTD SVG 1.1//EN" "http://www.w3.org/Graphics/SVG/1.1/DTD/svg11.dtd"><svg width="100%" height="100%" viewBox="0 0 2088 501" version="1.1" xmlns="http://www.w3.org/2000/svg" xmlns:xlink="http://www.w3.org/1999/xlink" xml:space="preserve" style="fill-rule:evenodd;clip-rule:evenodd;stroke-linejoin:round;stroke-miterlimit:1.41421;"><g id="Group"><g id="Shape"><path d="M1034.7,249.1l-72.6,87l0,147.9c0,9.1 -7.4,16.5 -16.5,16.5l-33.6,0c-13.6,0 -24.5,-11 -24.5,-24.5l0,-451.4c0,-13.3 10.8,-24.2 24.2,-24.2l34,0c9.1,0 16.5,7.4 16.5,16.5l0,221.9l187.6,-225.1c7,-8.4 17.3,-13.2 28.2,-13.2l66.2,0c3,0 4.7,3.6 2.8,5.9l-159.5,191.4l178.8,297.2c1.4,2.4 -0.3,5.4 -3.1,5.4l-57.7,0c-12.9,0 -24.9,-6.8 -31.6,-17.9l-139.2,-233.4Z" style="fill:#fff;"/><path d="M1336.2,32.4c0,-17.6 14.3,-31.9 31.9,-31.9l123.6,0c106.2,0 176.7,71.9 176.7,163c0,66.4 -37,129.4 -108.2,151.4l113.3,176.4c2.5,4 -0.3,9.2 -5,9.2l-68,0c-4.2,0 -8.1,-2.2 -10.3,-5.7l-131.8,-208.5c-4.3,-9.3 0.9,-24.1 13.3,-24.1l11.9,0c74,0 110.3,-52.7 110.3,-98.6c0,-56.9 -35.6,-93.8 -109.6,-93.8l-73.3,0l0,419.7c0,6.2 -5,11.1 -11.1,11.1l-37.6,0c-14.3,0 -25.9,-11.6 -25.9,-25.9l0,-442.3l-0.2,0Z" style="fill:#fff;"/><path d="M1859.2,263.5l-151.8,-246c-4.6,-7.4 0.8,-17 9.5,-17l43.3,0c11.8,0 22.7,6.1 28.8,16.2l107.3,175.6l107.9,-175.7c6.1,-10 17,-16.1 28.7,-16.1l43.3,0c8.7,0 14.1,9.6 9.5,17l-152.5,246.7l0,222.4c0,7.7 -6.2,13.9 -13.9,13.9l-46.2,0c-7.7,0 -13.9,-6.2 -13.9,-13.9l0,-223.1Z" style="fill:#fff;"/></g><g id="Shape1"><path d="M327,5.7c-15.6,-3.1 -37.4,-5.2 -69.9,-5.2c-25.9,0 -53.6,2.3 -69.9,5.2c-12,2.1 -23.3,11.2 -23.3,23.4l0,128l-134.6,0c-12.2,0 -21.3,11.3 -23.4,23.3c-2.9,16.3 -5.2,44.1 -5.2,70c0,32.6 2.1,54.4 5.2,70c2.4,12 11.2,23.3 23.4,23.3l134.6,0l0,128c0,12.2 11.3,21.3 23.3,23.4c16.3,2.9 44.1,5.2 69.9,5.2c32.6,0 54.4,-2.1 69.9,-5.2c12,-2.4 23.3,-11.2 23.3,-23.4l0,-211.3l0,-10l0,-221.3c0.1,-12.2 -11.3,-21 -23.3,-23.4Z" style="fill:#6accba;"/><path d="M698.4,476.5c5.5,8.3 0,19.5 -10,20.1c-25.3,1.5 -76,3.7 -93.3,3.9c-20.8,0.2 -58.3,-1.7 -83,-4.1c-13.7,-1.4 -26.4,-7.9 -34,-19.3l-92.8,-133.2l82,0c12.7,0 25.1,-10.2 27.6,-22.7c3.1,-15.6 5.3,-37.6 5.3,-70.6c0,-25.9 -2.3,-53.7 -5.2,-70c-2.1,-12 -11.2,-23.3 -23.4,-23.3l-86.3,0l92.8,-133.2c7.6,-11.5 20.3,-18 34,-19.3c24.8,-2.4 62.3,-4.1 83,-4.1c42.1,0 67.7,0.1 92.7,3.9c10.8,1.6 15.5,11.8 10,20.1l-160.9,213.3l-0.4,0.6c-5.1,7.1 -5.1,16.7 0,23.9l161.9,214Z" style="fill:#6accba;"/></g></g></svg>