<?xml version="1.0" encoding="UTF-8" standalone="no"?>
<svg width="2088px" height="501px" viewBox="0 0 2088 501" version="1.1" xmlns="http://www.w3.org/2000/svg" xmlns:xlink="http://www.w3.org/1999/xlink">
    <!-- Generator: Sketch 40.2 (33826) - http://www.bohemiancoding.com/sketch -->
    <title>kry_logo</title>
    <desc>Created with Sketch.</desc>
    <defs></defs>
    <g id="Page-1" stroke="none" stroke-width="1" fill="none" fill-rule="evenodd">
        <g id="kry_logo">
            <g id="Group">
                <g transform="translate(887.000000, 0.000000)" id="Shape" fill="#232323">
                    <path d="M147.7,249.1 L75.1,336.1 L75.1,484 C75.1,493.1 67.7,500.5 58.6,500.5 L25,500.5 C11.4,500.5 0.5,489.5 0.5,476 L0.5,24.6 C0.5,11.3 11.3,0.4 24.7,0.4 L58.7,0.4 C67.8,0.4 75.2,7.8 75.2,16.9 L75.2,238.8 L262.8,13.7 C269.8,5.3 280.1,0.5 291,0.5 L357.2,0.5 C360.2,0.5 361.9,4.1 360,6.4 L200.5,197.8 L379.3,495 C380.7,497.4 379,500.4 376.2,500.4 L318.5,500.4 C305.6,500.4 293.6,493.6 286.9,482.5 L147.7,249.1 L147.7,249.1 Z"></path>
                    <path d="M449.2,32.4 C449.2,14.8 463.5,0.5 481.1,0.5 L604.7,0.5 C710.9,0.5 781.4,72.4 781.4,163.5 C781.4,229.9 744.4,292.9 673.2,314.9 L786.5,491.3 C789,495.3 786.2,500.5 781.5,500.5 L713.5,500.5 C709.3,500.5 705.4,498.3 703.2,494.8 L571.4,286.3 C567.1,277 572.3,262.2 584.7,262.2 L596.6,262.2 C670.6,262.2 706.9,209.5 706.9,163.6 C706.9,106.7 671.3,69.8 597.3,69.8 L524,69.8 L524,489.5 C524,495.7 519,500.6 512.9,500.6 L475.3,500.6 C461,500.6 449.4,489 449.4,474.7 L449.4,32.4 L449.2,32.4 Z"></path>
                    <path d="M972.2,263.5 L820.4,17.5 C815.8,10.1 821.2,0.5 829.9,0.5 L873.2,0.5 C885,0.5 895.9,6.6 902,16.7 L1009.3,192.3 L1117.2,16.6 C1123.3,6.6 1134.2,0.5 1145.9,0.5 L1189.2,0.5 C1197.9,0.5 1203.3,10.1 1198.7,17.5 L1046.2,264.2 L1046.2,486.6 C1046.2,494.3 1040,500.5 1032.3,500.5 L986.1,500.5 C978.4,500.5 972.2,494.3 972.2,486.6 L972.2,263.5 L972.2,263.5 Z"></path>
                </g>
                <g id="Shape" fill="#6ACCBA">
                    <path d="M327,5.7 C311.4,2.6 289.6,0.5 257.1,0.5 C231.2,0.5 203.5,2.8 187.2,5.7 C175.2,7.8 163.9,16.9 163.9,29.1 L163.9,157.1 L29.3,157.1 C17.1,157.1 8,168.4 5.9,180.4 C3,196.7 0.7,224.5 0.7,250.4 C0.7,283 2.8,304.8 5.9,320.4 C8.3,332.4 17.1,343.7 29.3,343.7 L163.9,343.7 L163.9,471.7 C163.9,483.9 175.2,493 187.2,495.1 C203.5,498 231.3,500.3 257.1,500.3 C289.7,500.3 311.5,498.2 327,495.1 C339,492.7 350.3,483.9 350.3,471.7 L350.3,260.4 L350.3,250.4 L350.3,29.1 C350.4,16.9 339,8.1 327,5.7 L327,5.7 Z"></path>
                    <path d="M698.4,476.5 C703.9,484.8 698.4,496 688.4,496.6 C663.1,498.1 612.4,500.3 595.1,500.5 C574.3,500.7 536.8,498.8 512.1,496.4 C498.4,495 485.7,488.5 478.1,477.1 L385.3,343.9 L467.3,343.9 C480,343.9 492.4,333.7 494.9,321.2 C498,305.6 500.2,283.6 500.2,250.6 C500.2,224.7 497.9,196.9 495,180.6 C492.9,168.6 483.8,157.3 471.6,157.3 L385.3,157.3 L478.1,24.1 C485.7,12.6 498.4,6.1 512.1,4.8 C536.9,2.4 574.4,0.7 595.1,0.7 C637.2,0.7 662.8,0.8 687.8,4.6 C698.6,6.2 703.3,16.4 697.8,24.7 L536.9,238 L536.5,238.6 C531.4,245.7 531.4,255.3 536.5,262.5 L536.5,262.5 L698.4,476.5 L698.4,476.5 Z"></path>
                </g>
            </g>
        </g>
    </g>
</svg>