<?xml version="1.0" encoding="UTF-8"?>
<svg width="30px" height="30px" viewBox="0 0 30 30" version="1.1" xmlns="http://www.w3.org/2000/svg" xmlns:xlink="http://www.w3.org/1999/xlink">
    <!-- Generator: Sketch 43.2 (39069) - http://www.bohemiancoding.com/sketch -->
    <title>Quote</title>
    <desc>Created with Sketch.</desc>
    <defs></defs>
    <g stroke="none" stroke-width="1" fill="none" fill-rule="evenodd">
        <g fill="#66CDBA" fill-rule="nonzero">
            <path d="M13.5728758,9.78562092 C13.5728758,6.0379085 10.5339869,3 6.78627451,3 C3.03856209,3 0,6.0379085 0,9.78562092 C0,13.454902 2.91405229,16.4369281 6.55228758,16.5604575 C6.1120915,19.5362745 3.97843137,23.1617647 0.737908497,26.4022876 C6.64019608,26.4026144 13.5728758,17.9882353 13.5728758,9.78562092 Z"></path>
            <path d="M22.7866013,3 C19.0388889,3 16,6.0379085 16,9.78562092 C16,13.454902 18.9140523,16.4369281 22.5522876,16.5604575 C22.1120915,19.5362745 19.9784314,23.1617647 16.7379085,26.4022876 C22.6405229,26.4026144 29.5732026,17.9882353 29.5732026,9.78562092 C29.5732026,6.0379085 26.5346405,3 22.7866013,3 Z"></path>
        </g>
    </g>
</svg>